External Loads File
version=1
nRows=85
nColumns=13
Range=5.000000e-03-10 seconds
endheader
time 	forceRightX 	forceRightY 	forceRightZ 	pointRightX 	pointRightY 	pointRightZ 	forceLeftX 	forceLeftY 	forceLeftZ 	pointLeftX 	pointLeftY 	pointLeftZ 		
7.505000 -9.154550 -49.088727 -0.000000 0.182849 0.442323 -0.147691 38.391209 876.500876 -0.000000 0.388107 0.205058 -0.381385
7.510000 -18.481497 -50.784474 -0.000000 0.190430 0.450844 -0.148066 55.665543 882.946305 -0.000000 0.381345 0.197548 -0.381170
7.515000 -27.955831 -51.881134 -0.000000 0.198373 0.457910 -0.148458 72.358075 887.506077 -0.000000 0.374016 0.190398 -0.380989
7.520000 -37.382447 -52.159920 -0.000000 0.206867 0.464921 -0.148776 90.764819 890.155155 -0.000000 0.366258 0.183736 -0.380942
7.525000 -46.371122 -51.499483 -0.000000 0.215465 0.471331 -0.149282 108.772824 891.465044 -0.000000 0.358073 0.177605 -0.380885
7.530000 -54.854618 -49.473915 -0.000000 0.225224 0.477235 -0.149116 128.839404 891.636060 -0.000000 0.349516 0.172000 -0.380834
7.535000 -62.332917 -45.987009 -0.000000 0.233800 0.482621 -0.150098 145.067536 891.963121 -0.000000 0.340645 0.166921 -0.380863
7.540000 -68.948446 -40.013129 -0.000000 0.243761 0.487358 -0.150409 163.849678 891.649043 -0.000000 0.331445 0.162403 -0.380888
7.545000 -74.202588 -31.145380 -0.000000 0.253396 0.491296 -0.150804 180.912749 891.015918 -0.000000 0.322017 0.158418 -0.380892
7.550000 -77.815683 -18.569661 -0.000000 0.263299 0.494611 -0.151184 198.043194 888.716834 -0.000000 0.312416 0.155055 -0.380969
7.555000 -79.332965 -1.747241 -0.000000 0.273341 0.497295 -0.151502 215.218107 883.103285 -0.000000 0.302607 0.152351 -0.381073
7.560000 -78.248215 19.514185 -0.000000 0.283387 0.499301 -0.151722 231.815287 872.270880 -0.000000 0.292683 0.150346 -0.381064
7.565000 -74.100514 44.997483 -0.000000 0.293393 0.500834 -0.152038 247.357351 854.154653 -0.000000 0.282660 0.149085 -0.381060
7.570000 -66.489833 74.075996 -0.000000 0.303772 0.501630 -0.151898 262.063565 826.645170 -0.000000 0.272554 0.148659 -0.381087
7.575000 -55.701372 105.385065 -0.000000 0.313111 0.501839 -0.151840 271.519695 789.610713 -0.000000 0.262461 0.149039 -0.381045
7.580000 -42.105440 137.851488 -0.000000 0.321942 0.501456 -0.151704 276.166855 742.233640 -0.000000 0.252407 0.150289 -0.380953
7.585000 -26.400869 170.441293 -0.000000 0.330385 0.500141 -0.151854 275.552570 684.879709 -0.000000 0.242534 0.152425 -0.380747
7.590000 -9.598329 202.466310 -0.000000 0.338368 0.498389 -0.151788 269.130407 618.998731 -0.000000 0.232852 0.155409 -0.380371
7.595000 7.192718 233.772388 -0.000000 0.345866 0.496090 -0.151590 256.960651 546.611870 -0.000000 0.223465 0.159165 -0.379886
7.600000 23.014466 264.726572 -0.000000 0.352946 0.492916 -0.151285 239.673004 469.888167 -0.000000 0.214472 0.163591 -0.379382
7.605000 36.845586 296.069871 -0.000000 0.359361 0.489027 -0.150873 217.637944 391.227062 -0.000000 0.205854 0.168599 -0.378839
7.610000 49.065906 328.447550 -0.000000 0.366012 0.483773 -0.150315 192.701610 312.041001 -0.000000 0.197667 0.174154 -0.378271
7.615000 58.781974 362.422772 -0.000000 0.372500 0.478181 -0.149654 164.491365 234.750688 -0.000000 0.189895 0.180187 -0.377896
7.620000 65.760821 398.030801 -0.000000 0.378473 0.471848 -0.149318 133.778331 161.307650 -0.000000 0.182597 0.186688 -0.377677
7.625000 70.235422 434.668531 -0.000000 0.384140 0.464835 -0.148779 101.832914 93.637380 -0.000000 0.175723 0.193616 -0.377358
7.630000 72.240871 471.292280 -0.000000 0.389537 0.457097 -0.148462 69.949625 33.599913 -0.000000 0.169367 0.200965 -0.377088
7.635000 72.558777 506.522444 -0.000000 0.394797 0.448946 -0.148472 39.353738 -17.526665 -0.000000 0.162616 0.208620 -0.376003
7.640000 69.644239 539.385661 -0.000000 0.399842 0.440088 -0.148333 11.111850 -58.870668 -0.000000 0.157055 0.216605 -0.375880
7.645000 64.103599 568.862652 -0.000000 0.404888 0.430913 -0.148198 -13.823030 -90.446424 -0.000000 0.152019 0.224870 -0.375845
7.650000 56.209233 594.402585 -0.000000 0.409601 0.421182 -0.148154 -34.766066 -112.670182 -0.000000 0.147456 0.233449 -0.375778
7.655000 45.543728 615.972403 -0.000000 0.413819 0.411317 -0.148105 -51.048316 -126.420965 -0.000000 0.143294 0.242294 -0.375782
7.660000 33.164368 633.847171 -0.000000 0.417861 0.401127 -0.148002 -62.465183 -132.845496 -0.000000 0.139658 0.251447 -0.375815
7.665000 19.288004 648.743701 -0.000000 0.421504 0.390820 -0.147935 -68.873186 -133.383503 -0.000000 0.136402 0.260866 -0.375779
7.670000 5.223529 661.557089 -0.000000 0.424644 0.380158 -0.147755 -70.583486 -129.446656 -0.000000 0.133641 0.270587 -0.375813
7.675000 -8.394568 673.248474 -0.000000 0.427271 0.369414 -0.147633 -68.005168 -122.430336 -0.000000 0.131363 0.280575 -0.375831
7.680000 -20.157757 684.632093 -0.000000 0.429392 0.358439 -0.147270 -61.888490 -113.408014 -0.000000 0.129679 0.290792 -0.375872
7.685000 -29.114948 696.308823 -0.000000 0.431198 0.347324 -0.147938 -52.975375 -103.177590 -0.000000 0.128462 0.301186 -0.375910
7.690000 -35.393997 708.617452 -0.000000 0.432297 0.336294 -0.147685 -41.877515 -92.309377 -0.000000 0.127924 0.311680 -0.375912
7.695000 -38.191532 721.764508 -0.000000 0.432739 0.325249 -0.147582 -29.350440 -81.052502 -0.000000 0.127879 0.322239 -0.375964
7.700000 -37.496106 735.821235 -0.000000 0.432625 0.314263 -0.147802 -15.958870 -69.572643 -0.000000 0.128518 0.332836 -0.376061
7.705000 -33.802169 750.799330 -0.000000 0.431658 0.303463 -0.146793 -2.117948 -58.033894 -0.000000 0.129642 0.343371 -0.376116
7.710000 -27.287391 766.758284 -0.000000 0.430400 0.292744 -0.146692 11.768951 -46.681506 -0.000000 0.131510 0.353826 -0.376229
7.715000 -18.059643 783.844281 -0.000000 0.428824 0.281836 -0.147446 25.282393 -35.896642 -0.000000 0.133883 0.364216 -0.376298
7.720000 -7.803905 802.277045 -0.000000 0.426434 0.271264 -0.147339 38.006571 -26.075259 -0.000000 0.136993 0.374447 -0.376449
7.725000 3.163928 822.311060 -0.000000 0.423532 0.260796 -0.147019 49.393492 -17.589511 -0.000000 0.140632 0.384470 -0.376476
7.730000 14.549044 843.927541 -0.000000 0.420143 0.250662 -0.146889 58.939570 -10.703718 -0.000000 0.144974 0.394300 -0.376680
7.735000 26.529251 866.725986 -0.000000 0.416110 0.240932 -0.146848 66.206676 -5.598167 -0.000000 0.149867 0.403857 -0.376757
7.740000 40.223322 890.033388 -0.000000 0.411550 0.231328 -0.147005 70.820306 -2.437207 -0.000000 0.155418 0.413106 -0.376831
7.745000 54.934041 913.210132 -0.000000 0.406524 0.222182 -0.146775 72.520539 -1.159344 -0.000000 0.161567 0.422007 -0.377022
7.750000 70.682153 935.662015 -0.000000 0.400910 0.213560 -0.146582 71.189146 -1.698389 -0.000000 0.168227 0.430522 -0.377094
7.755000 88.054377 956.746008 -0.000000 0.394695 0.205342 -0.146395 66.846595 -4.010728 -0.000000 0.175467 0.438634 -0.377203
7.760000 106.872317 975.812213 -0.000000 0.388073 0.197446 -0.146293 59.625110 -7.990500 -0.000000 0.183308 0.446294 -0.377299
7.765000 126.405638 992.258167 -0.000000 0.380922 0.190222 -0.146017 49.742610 -13.491515 -0.000000 0.191591 0.453468 -0.377432
7.770000 146.865497 1005.429835 -0.000000 0.373330 0.183364 -0.146035 37.452065 -20.381974 -0.000000 0.200272 0.460164 -0.377460
7.775000 165.487095 1015.258853 -0.000000 0.365383 0.176998 -0.146021 23.124995 -28.381597 -0.000000 0.208583 0.466343 -0.376823
7.780000 185.310695 1020.977742 -0.000000 0.357032 0.171383 -0.146034 7.101841 -37.313698 -0.000000 0.217771 0.471999 -0.376634
7.785000 206.066057 1022.376220 -0.000000 0.348410 0.166332 -0.146070 -10.117040 -46.668867 -0.000000 0.227758 0.477153 -0.376921
7.790000 227.487834 1019.284569 -0.000000 0.339529 0.161749 -0.145896 -27.945095 -55.792723 -0.000000 0.238468 0.481768 -0.377657
7.795000 244.630867 1012.623501 -0.000000 0.330394 0.157861 -0.145723 -45.458214 -64.167480 -0.000000 0.248346 0.485812 -0.377375
7.800000 261.102872 1001.341533 -0.000000 0.321173 0.154543 -0.145550 -62.177239 -71.006019 -0.000000 0.258745 0.489292 -0.376980
7.805000 275.177544 985.469862 -0.000000 0.311786 0.151838 -0.145372 -77.323690 -75.628990 -0.000000 0.268984 0.492160 -0.376922
7.810000 288.079577 964.149837 -0.000000 0.302269 0.149782 -0.145424 -90.337085 -77.235481 -0.000000 0.279533 0.494392 -0.376611
7.815000 297.209144 937.509404 -0.000000 0.292895 0.148361 -0.145131 -100.442140 -75.545636 -0.000000 0.289685 0.495978 -0.376727
7.820000 304.031488 904.422936 -0.000000 0.283399 0.147516 -0.144798 -107.357734 -70.202866 -0.000000 0.299717 0.496933 -0.376840
7.825000 308.199858 864.280030 -0.000000 0.273989 0.147351 -0.144425 -110.895175 -61.283165 -0.000000 0.309725 0.497217 -0.376953
7.830000 309.286369 816.585687 -0.000000 0.264534 0.147918 -0.144041 -111.118208 -49.077890 -0.000000 0.319460 0.496882 -0.377139
7.835000 306.753696 761.126608 -0.000000 0.255128 0.149088 -0.143700 -108.320619 -34.025007 -0.000000 0.328896 0.495906 -0.377392
7.840000 299.778917 698.244005 -0.000000 0.245952 0.150955 -0.143302 -102.993760 -16.674245 -0.000000 0.337904 0.494334 -0.377911
7.845000 288.231808 628.570238 -0.000000 0.237059 0.153678 -0.142855 -95.839507 2.558235 -0.000000 0.346452 0.492134 -0.378609
7.850000 272.571681 553.102173 -0.000000 0.228369 0.157130 -0.142713 -87.646804 23.469371 -0.000000 0.354806 0.489305 -0.379193
7.855000 252.293258 473.988344 -0.000000 0.220115 0.161328 -0.142594 -79.243694 45.855292 -0.000000 0.362765 0.485795 -0.379620
7.860000 227.885870 393.533757 -0.000000 0.212235 0.166327 -0.142562 -71.425059 69.844389 -0.000000 0.370223 0.481638 -0.380114
7.865000 200.040282 314.341774 -0.000000 0.204690 0.171861 -0.142690 -64.890225 95.789166 -0.000000 0.377098 0.476802 -0.380636
7.870000 170.127555 238.743575 -0.000000 0.197453 0.178080 -0.142864 -60.043235 124.316506 -0.000000 0.383591 0.471242 -0.381307
7.875000 139.182034 169.109891 -0.000000 0.190521 0.184652 -0.143136 -57.224393 156.041300 -0.000000 0.389569 0.464995 -0.381933
7.880000 108.718895 106.965275 -0.000000 0.183913 0.191758 -0.143385 -56.278151 191.610543 -0.000000 0.395391 0.458102 -0.382915
7.885000 79.759385 53.514593 -0.000000 0.177694 0.199197 -0.143888 -57.381508 231.166259 -0.000000 0.400423 0.450549 -0.383519
7.890000 53.516502 8.899148 -0.000000 0.171645 0.207078 -0.143897 -60.046388 274.529058 -0.000000 0.404952 0.442402 -0.384072
7.895000 30.651562 -27.172638 -0.000000 0.165346 0.215461 -0.144393 -63.588367 321.015328 -0.000000 0.409107 0.433701 -0.384439
7.900000 11.573204 -55.284913 -0.000000 0.159924 0.224076 -0.144454 -68.613041 369.291665 -0.000000 0.412878 0.424517 -0.384702
7.905000 -3.647970 -76.436386 -0.000000 0.155719 0.233210 -0.144377 -74.730970 418.054291 -0.000000 0.416411 0.414770 -0.384791
7.910000 -15.459687 -91.537677 -0.000000 0.150747 0.242646 -0.144967 -80.692442 466.188185 -0.000000 0.419591 0.404705 -0.384829
7.915000 -24.032368 -101.428569 -0.000000 0.146956 0.252517 -0.145083 -87.349463 512.401017 -0.000000 0.422480 0.394319 -0.384797
7.920000 -29.715393 -106.861397 -0.000000 0.143578 0.262383 -0.145024 -94.449421 555.743380 -0.000000 0.425044 0.383715 -0.384755
7.925000 -32.867491 -108.485845 -0.000000 0.140983 0.272457 -0.145063 -101.449490 595.392270 -0.000000 0.427270 0.372958 -0.384650
